<svg version="1.1" id="Layer_1" xmlns="http://www.w3.org/2000/svg" xmlns:xlink="http://www.w3.org/1999/xlink" x="0px" y="0px"
	 width="100%" viewBox="0 0 1024 832" enable-background="new 0 0 1024 832" xml:space="preserve">
<path fill="#000000" opacity="1.000000" stroke="none" 
	d="
M342.468872,701.894714 
	C342.835541,699.014099 341.895569,697.104980 339.996857,695.388977 
	C334.320740,690.259277 327.615234,687.526855 320.088654,687.096619 
	C311.908875,686.629028 303.768921,687.139099 295.842926,689.569092 
	C290.650940,691.161011 285.390167,691.282532 280.025360,690.334045 
	C274.695068,689.391663 269.422638,689.674683 264.333679,691.875244 
	C257.356201,694.892334 249.738525,695.166443 242.426590,696.745728 
	C237.553055,697.798279 232.592819,698.364136 227.762955,699.755920 
	C220.738174,701.780273 214.349503,700.382202 208.679581,695.562805 
	C196.256805,685.003418 189.683609,670.919861 185.024887,655.837830 
	C181.979263,645.977905 175.850632,639.199463 167.124146,634.108887 
	C161.399704,630.769592 156.030685,626.801147 150.626465,622.940918 
	C147.826035,620.940552 147.109421,617.748535 146.999207,614.501892 
	C146.665146,604.659973 146.639481,594.889771 149.974442,585.359497 
	C152.911865,576.965332 153.921600,568.180908 153.904648,559.285095 
	C153.887848,550.457764 153.771774,541.644043 155.755539,532.927002 
	C157.150711,526.796326 155.114914,521.369629 151.034653,516.753906 
	C147.221115,512.440002 144.720642,507.437408 142.414520,502.217041 
	C139.249054,495.051361 135.511902,488.244781 130.037811,482.398743 
	C125.260002,477.296326 125.011673,470.227325 125.358398,463.954102 
	C125.935791,453.507538 125.886963,442.851074 127.814713,432.641876 
	C131.611694,412.533447 142.028793,396.287048 158.461960,383.442627 
	C170.308868,374.182892 181.686050,364.180084 190.701111,351.725769 
	C196.627136,343.538910 203.842606,336.277313 210.301743,328.438080 
	C217.382202,319.844818 225.153381,311.868958 230.792740,302.101257 
	C234.810959,295.141418 241.766785,290.496307 246.440231,283.987701 
	C257.916992,268.004364 268.389221,251.445679 274.227417,232.447113 
	C275.338379,228.831818 275.606567,224.916260 275.939545,221.110870 
	C276.977631,209.246063 282.042511,198.339523 283.990448,186.686691 
	C284.536407,183.420441 286.037537,180.382889 288.502258,177.911255 
	C289.404633,177.006348 290.200989,175.732208 290.470978,174.500519 
	C293.425995,161.018860 300.122803,148.612930 301.803467,134.761414 
	C302.439850,129.516205 307.050323,126.598312 309.702179,122.542732 
	C311.151062,120.326897 313.081085,122.294144 313.672577,124.139839 
	C315.144470,128.732544 317.560181,128.223175 320.810150,125.982018 
	C326.125183,122.316818 332.069000,119.483582 336.024567,114.082565 
	C336.853638,112.950562 338.015442,111.983047 339.391113,112.279427 
	C348.661041,114.276573 357.099640,110.392639 365.844940,108.696571 
	C373.741364,107.165138 381.646820,106.557373 389.692352,107.625519 
	C394.491425,108.262657 399.378754,108.102478 404.035919,106.475914 
	C415.032593,102.635201 426.093750,98.957405 437.122131,95.237930 
	C445.169830,92.523743 452.933746,89.372734 460.755829,86.141853 
	C470.319580,82.191574 480.662140,81.521599 490.743256,83.969597 
	C504.063782,87.204208 518.510559,87.475449 530.009521,96.033798 
	C541.789795,104.801483 555.882568,108.768211 568.423279,115.889999 
	C574.164490,119.150398 577.707703,124.976921 583.468384,128.108307 
	C600.597351,137.419205 610.167542,154.304520 622.815613,168.018478 
	C628.518311,174.201691 631.526917,182.882767 635.689209,190.468155 
	C638.035767,194.744522 640.951111,198.420288 644.727600,201.623596 
	C652.320496,208.063965 655.557617,217.258835 657.803467,226.394150 
	C660.859436,238.824554 665.430420,250.430252 671.657654,261.565186 
	C678.957947,274.618835 687.151001,287.414948 692.460205,301.278839 
	C699.008301,318.377960 706.336731,335.168365 712.590332,352.378052 
	C714.358215,357.243134 716.963623,361.705414 719.432312,366.251434 
	C729.216309,384.268036 737.617981,402.916840 744.107483,422.386200 
	C745.849182,427.611481 747.805420,432.731232 750.115173,437.729706 
	C759.719238,458.513947 767.960327,479.813080 771.252136,502.581604 
	C772.798828,513.279663 771.669128,524.212036 769.670532,534.832092 
	C766.779053,550.197571 761.678406,565.372742 763.239502,581.155090 
	C764.273315,591.607239 765.268616,601.998108 765.088745,612.484863 
	C764.849365,626.438293 761.612305,639.274963 752.864685,650.735168 
	C746.014587,659.709473 740.387085,669.561523 731.595093,677.019958 
	C725.018616,682.598877 718.694580,688.472595 712.484009,694.500488 
	C703.868164,702.862976 691.717712,701.749634 681.939331,692.523254 
	C672.809448,683.908813 663.469360,675.761780 651.770081,670.675232 
	C647.039185,668.618225 644.381897,664.547302 643.921509,659.293335 
	C643.529236,654.817688 643.117371,650.337036 642.950012,645.849792 
	C642.578979,635.902710 639.212463,631.737610 629.571899,629.421997 
	C625.613220,628.471313 621.481262,627.765137 618.531982,624.215332 
	C620.996643,620.740479 624.942322,622.672607 628.219055,621.096985 
	C625.242859,613.164490 622.399719,605.382141 619.412415,597.655518 
	C585.483948,509.901672 551.529114,422.157990 517.590881,334.407928 
	C503.295013,297.444824 488.971802,260.492096 474.811066,223.477234 
	C473.308685,219.550079 471.114044,217.965302 467.004578,218.234940 
	C463.188477,218.485321 459.319427,218.543869 455.515839,218.208664 
	C451.145020,217.823456 448.860535,219.590927 447.317871,223.627029 
	C439.054230,245.247604 430.613098,266.800476 422.200073,288.363770 
	C399.685516,346.070709 377.161041,403.773773 354.627258,461.473206 
	C334.635956,512.662354 314.624390,563.843567 294.635895,615.033752 
	C293.918549,616.870911 293.351379,618.766785 292.615234,620.925598 
	C295.446625,622.456238 298.324890,621.596252 301.028595,621.851257 
	C306.341797,622.352234 308.150513,624.308350 307.649902,629.618713 
	C307.431793,631.932251 306.796082,634.203308 306.443939,636.507996 
	C305.721863,641.234192 308.610718,646.702637 313.070953,648.914307 
	C317.598053,651.159058 321.514008,649.755066 324.923920,646.513733 
	C327.343414,644.213867 329.597595,641.680664 330.805206,638.525940 
	C335.706421,625.722473 343.315674,621.912964 354.523163,621.921875 
	C436.678711,621.987000 518.834351,621.900085 600.989990,621.932495 
	C603.843750,621.933655 607.877319,620.812195 609.106873,624.016418 
	C610.188416,626.835022 606.532227,628.651733 604.700684,630.651123 
	C598.147461,637.805115 598.018311,639.081665 603.808899,646.798340 
	C603.908875,646.931580 603.994507,647.076355 604.101013,647.203918 
	C617.383606,663.102600 611.962097,673.950867 597.865234,687.041809 
	C592.628967,691.904419 585.169861,690.603455 578.601868,689.841553 
	C568.944336,688.721497 559.395447,688.435608 549.741699,689.845276 
	C542.088745,690.962769 534.471558,688.938477 526.841187,688.802185 
	C512.178711,688.540161 497.637451,686.739380 483.023773,685.997803 
	C471.585175,685.417358 460.552643,688.421082 449.472473,690.743286 
	C446.293213,691.409485 443.277740,693.122742 443.550201,696.526917 
	C444.219971,704.893799 438.756897,707.710144 432.425385,709.488525 
	C419.374542,713.154175 406.272125,716.058899 392.659668,711.562683 
	C388.081055,710.050354 383.005219,710.465637 378.305664,711.711365 
	C371.189270,713.597656 364.451141,712.552307 357.749512,710.076904 
	C354.321442,708.810547 351.004150,707.235718 347.270966,706.877991 
	C344.572723,706.619324 343.501099,704.413635 342.468872,701.894714 
M304.339142,136.676926 
	C304.699921,137.436951 305.435486,138.458954 306.072662,137.748550 
	C307.539520,136.113144 307.395569,134.295258 305.750305,132.744247 
	C303.812866,133.351974 304.151093,134.754593 304.339142,136.676926 
z"/>
<path fill="#000000" opacity="1.000000" stroke="none" 
	d="
M454.832581,563.000000 
	C454.813538,545.838562 454.823975,529.177063 454.736542,512.515991 
	C454.726990,510.698578 455.670898,507.998871 452.872131,507.522461 
	C450.318848,507.087860 449.826508,509.639496 449.108063,511.442474 
	C439.801208,534.798645 430.520050,558.164978 421.230042,581.527832 
	C420.737762,582.765869 420.218414,583.993103 419.721527,585.229309 
	C418.942688,587.167114 417.900391,588.956604 415.559235,589.002319 
	C413.069397,589.051086 412.364105,587.012268 411.632690,585.107178 
	C403.695801,564.435181 395.753540,543.765259 387.804596,523.097900 
	C385.772949,517.815674 383.748993,512.529907 381.643707,507.276947 
	C380.996552,505.662231 380.612427,503.295135 378.139526,503.876068 
	C375.816772,504.421661 376.184357,506.704254 376.183075,508.484924 
	C376.166077,531.977417 376.183380,555.469971 376.187805,578.962463 
	C376.188202,581.128357 376.210052,583.295959 376.135651,585.459839 
	C375.786743,595.612427 371.353271,599.385315 361.458221,597.999695 
	C359.951416,597.788635 358.199768,597.682190 358.233551,595.667847 
	C358.263245,593.894287 359.883606,593.958313 361.211273,593.750671 
	C368.076355,592.676514 368.984924,591.695496 368.996185,584.747070 
	C369.042145,556.422852 369.058289,528.098511 369.034668,499.774261 
	C369.028381,492.206635 368.541840,491.716644 360.786804,490.188629 
	C359.388123,489.913025 358.160187,489.604401 358.175201,487.803497 
	C359.021118,486.082245 360.611908,486.400604 362.078735,486.417267 
	C366.569702,486.468231 371.060333,486.549683 375.551392,486.590118 
	C383.167023,486.658691 386.134369,488.564362 388.824493,495.517212 
	C394.651398,510.577545 400.405182,525.666199 406.172485,540.749573 
	C409.324036,548.991882 412.407684,557.260437 415.602081,565.486023 
	C416.301361,567.286682 416.769440,569.336792 418.712250,570.406921 
	C421.456299,569.772034 421.645630,567.305847 422.398132,565.423340 
	C431.607697,542.384460 440.735382,519.312866 449.914368,496.261719 
	C453.530121,487.181549 464.183685,483.230011 472.993530,487.504272 
	C476.020569,488.972931 477.215149,491.666046 478.295410,494.451141 
	C486.903931,516.645142 495.450500,538.863220 504.042419,561.063782 
	C505.281433,564.265137 506.048553,567.717407 508.346161,570.458557 
	C511.631927,569.534302 511.773895,566.686462 512.640015,564.522522 
	C521.674011,541.951294 530.588867,519.332520 539.604919,496.754089 
	C543.197144,487.758362 546.149292,486.037262 556.009277,486.480743 
	C558.326233,486.584961 560.659729,486.256012 562.987244,486.213654 
	C564.757568,486.181427 566.734741,485.762604 567.698303,488.017578 
	C567.460571,490.091064 565.854309,490.007782 564.379761,490.210541 
	C558.095398,491.074585 556.205078,493.006165 556.450745,499.305786 
	C557.470337,525.455566 556.630432,551.611938 556.866150,577.763733 
	C556.899048,581.415833 556.871399,585.119324 556.321228,588.714844 
	C555.294739,595.423401 552.245911,597.902344 545.550537,598.035583 
	C542.553711,598.095215 539.552368,598.082703 536.556885,597.985474 
	C535.206299,597.941650 533.758362,597.609070 533.605103,595.909058 
	C533.435425,594.027954 534.911865,593.965271 536.275330,593.742554 
	C543.959351,592.487671 544.781738,591.529114 544.777100,583.813538 
	C544.762817,560.154358 544.750305,536.495056 544.673401,512.836060 
	C544.667358,510.976807 545.574707,508.308258 543.038940,507.624725 
	C540.106384,506.834229 539.656250,509.767487 538.910156,511.636139 
	C529.588196,534.985168 520.370605,558.375916 511.027069,581.716309 
	C509.902527,584.525391 509.518524,588.733582 505.722717,588.852295 
	C501.389313,588.987976 501.353241,584.438843 500.226837,581.524353 
	C490.862823,557.294922 481.614838,533.020630 472.321594,508.763763 
	C471.846100,507.522644 471.336578,506.287079 470.733459,505.104736 
	C470.261505,504.179535 469.467346,503.461975 468.350067,503.644348 
	C467.219727,503.828827 466.684113,504.807892 466.583832,505.811249 
	C466.402130,507.628632 466.381744,509.466125 466.368378,511.295746 
	C466.188599,535.937683 467.421326,560.574707 466.463501,585.223083 
	C466.083466,595.002563 463.199982,598.138367 453.545959,598.054993 
	C451.214111,598.034912 448.880005,598.065186 446.551208,597.968811 
	C445.148254,597.910767 443.804688,597.473633 443.790405,595.740234 
	C443.777832,594.217590 445.022095,594.039734 446.210754,593.781555 
	C454.724121,591.932190 454.846313,591.760071 454.839508,582.991516 
	C454.834473,576.494324 454.835297,569.997192 454.832581,563.000000 
z"/>
<path fill="#000000" opacity="1.000000" stroke="none" 
	d="
M385.810425,750.159546 
	C386.542419,752.262207 387.141022,753.990906 387.689728,755.735229 
	C390.095001,763.381653 388.750793,765.605408 380.927887,768.050781 
	C371.273743,771.068481 361.241638,771.004639 351.340942,771.867493 
	C345.086914,772.412476 338.753845,772.763306 332.462463,771.942566 
	C329.997192,771.621033 327.469391,771.438538 325.107147,770.733459 
	C318.736847,768.832031 317.721588,764.947693 322.850952,760.861938 
	C328.546417,756.325195 332.809113,750.967957 336.561707,744.700317 
	C340.773621,737.665466 346.975250,732.928040 356.305237,733.782043 
	C362.584015,734.356873 368.910797,734.337708 375.097626,735.788513 
	C380.333679,737.016357 384.566528,739.055115 384.215668,745.604553 
	C384.142456,746.971008 385.146484,748.395264 385.810425,750.159546 
z"/>
</svg>